<?xml version="1.0" encoding="UTF-8"?>
<svg id="Layer_1" data-name="Layer 1" xmlns="http://www.w3.org/2000/svg" viewBox="0 0 1300 900">
  <defs>
    <style>
      .cls-1 {
        fill: #009696;
      }
    </style>
  </defs>
  <path class="cls-1" d="M409.17,453.35c5.1-1.28,8.72-5.53,8.72-11,0-6.65-5.21-11.65-12.02-11.65h-31.26c-7.07,0-12.7,4.26-12.7,10.85,0,9.73,11.89,9.89,17.15,12.92,1.51.86,2.47,1.95,2.47,3.57,0,1.23-.54,2.3-1.42,3.12-1.22,1.15-3.13,1.83-5.29,1.83-3.99,0-7.07-2.4-7.07-5.58h-6.49c0,6.38,5.8,11.27,13.51,11.27,5.91,0,10.88-2.86,12.62-7.52.44-1.16.67-2.43.67-3.81,0-6.03-4.39-8.36-9.01-9.91-5.18-1.75-10.67-2.51-10.67-6.36,0-2.88,2.82-4.42,6.12-4.42h31.21c3.25,0,5.69,2.45,5.69,5.75s-2.44,5.79-5.69,5.79h-15.77c.69.87,1.29,1.85,1.77,2.93.36.82.65,1.69.86,2.6h9.26l9.26,13.68h7.93l-9.84-14.04Z"/>
  <g>
    <path class="cls-1" d="M473.25,457.39h6.49c0,3.19,3.08,5.58,7.07,5.58,3.72,0,6.7-2.02,6.7-4.95,0-7.29-19.62-3.99-19.62-16.48,0-6.6,5.64-10.85,12.71-10.85s12.82,4.63,12.82,10.8h-6.49c0-2.93-2.76-5.11-6.43-5.11-3.3,0-6.11,1.81-6.11,4.68,0,7.29,19.67,3.51,19.67,16.27,0,6.86-5.9,11.33-13.29,11.33s-13.51-4.89-13.51-11.27"/>
    <polygon class="cls-1" points="525.78 431.34 525.78 446.6 504.18 446.6 504.18 452.55 525.78 452.55 525.78 468.03 532.06 468.03 532.06 431.34 525.78 431.34"/>
    <polygon class="cls-1" points="540.78 431.33 564.65 431.33 564.65 437.29 547.1 437.29 547.1 446.6 562.9 446.6 562.9 452.55 547.1 452.55 547.1 462.07 564.92 462.07 564.92 468.03 540.78 468.03 540.78 431.33"/>
    <path class="cls-1" d="M571.9,431.33h16.06c6.81,0,12.02,5,12.02,11.65,0,5.48-3.62,9.73-8.72,11.01l9.84,14.04h-7.92l-9.25-13.67h-5.69v13.67h-6.33v-36.69ZM578.23,437.29v11.54h9.57c3.24,0,5.69-2.5,5.69-5.8s-2.45-5.74-5.69-5.74h-9.57Z"/>
    <rect class="cls-1" x="606.68" y="431.33" width="6.33" height="36.69"/>
    <path class="cls-1" d="M621.6,431.33h14.25c10.69,0,18.66,7.87,18.66,18.35s-7.98,18.35-18.66,18.35h-14.25v-36.69ZM627.92,437.29v24.78h7.82c7.02,0,12.28-5.32,12.28-12.39s-5.27-12.39-12.28-12.39h-7.82Z"/>
    <polygon class="cls-1" points="677.49 431.34 669.99 431.34 655.53 468.03 662.34 468.03 673.66 438.25 684.99 468.03 691.96 468.03 677.49 431.34"/>
    <polygon class="cls-1" points="696.54 431.33 702.97 431.33 721.32 457.29 721.32 431.33 727.65 431.33 727.65 468.03 721.21 468.03 702.87 442.08 702.87 468.03 696.54 468.03 696.54 431.33"/>
    <path class="cls-1" d="M764.39,453.99c5.1-1.28,8.72-5.53,8.72-11.01,0-6.65-5.21-11.65-12.02-11.65h-16.06v5.95h15.9c3.24,0,5.69,2.45,5.69,5.75s-2.45,5.79-5.69,5.79h-15.9v5.53h12.02l9.26,13.67h7.92l-9.84-14.04Z"/>
    <rect class="cls-1" x="779.82" y="431.33" width="6.33" height="36.69"/>
    <path class="cls-1" d="M792.69,449.68c0-10.8,8.35-18.98,19.3-18.98,9.2,0,16.54,5.8,18.35,13.93h-6.7c-1.65-4.68-6.17-7.82-11.64-7.82-7.23,0-12.76,5.53-12.76,12.87s5.53,12.87,12.76,12.87c5.48,0,10-3.14,11.64-7.82h6.7c-1.81,8.14-9.15,13.93-18.35,13.93-10.96,0-19.3-8.19-19.3-18.98"/>
    <polygon class="cls-1" points="836.71 431.33 843.03 431.33 843.03 446.6 861.01 446.6 861.01 431.33 867.28 431.33 867.28 468.03 861.01 468.03 861.01 452.55 843.03 452.55 843.03 468.03 836.71 468.03 836.71 431.33"/>
    <polygon class="cls-1" points="876 431.33 899.88 431.33 899.88 437.29 882.33 437.29 882.33 446.6 898.12 446.6 898.12 452.55 882.33 452.55 882.33 462.07 900.14 462.07 900.14 468.03 876 468.03 876 431.33"/>
    <polygon class="cls-1" points="918.05 454.89 903.64 431.33 910.87 431.33 921.3 448.51 931.67 431.33 938.74 431.33 924.38 454.89 924.38 468.03 918.05 468.03 918.05 454.89"/>
    <rect class="cls-1" x="445.08" y="420.42" width="1.39" height="59.15"/>
  </g>
</svg>