<?xml version="1.0" encoding="UTF-8"?>
<svg id="Layer_2" data-name="Layer 2" xmlns="http://www.w3.org/2000/svg" viewBox="0 0 1277.71 130.88">
  <g id="Layer_1-2" data-name="Layer 1">
    <g>
      <path d="M105.99,72.85c11.28-2.84,19.29-12.23,19.29-24.34,0-14.72-11.52-25.79-26.59-25.79H29.53c-15.64,0-28.11,9.43-28.11,24.01,0,21.52,26.3,21.88,37.95,28.59,3.33,1.89,5.47,4.32,5.47,7.89,0,2.72-1.18,5.09-3.14,6.9-2.7,2.55-6.92,4.04-11.7,4.04-8.82,0-15.64-5.31-15.64-12.35H0c0,14.11,12.82,24.94,29.89,24.94,13.08,0,24.07-6.33,27.93-16.63.97-2.56,1.48-5.39,1.48-8.42,0-13.34-9.71-18.5-19.93-21.94-11.46-3.87-23.61-5.54-23.61-14.07,0-6.37,6.24-9.79,13.53-9.79h69.04c7.18,0,12.59,5.43,12.59,12.72s-5.41,12.8-12.59,12.8h-34.9c1.52,1.93,2.86,4.1,3.93,6.49.81,1.81,1.44,3.75,1.89,5.74h20.5l20.48,30.26h17.54l-21.78-31.07Z"/>
      <g>
        <path d="M247.77,81.79h14.36c0,7.06,6.82,12.36,15.65,12.36,8.24,0,14.83-4.47,14.83-10.94,0-16.12-43.42-8.83-43.42-36.47,0-14.59,12.47-24,28.12-24s28.36,10.24,28.36,23.88h-14.36c0-6.47-6.12-11.3-14.24-11.3-7.29,0-13.53,4-13.53,10.35,0,16.12,43.53,7.76,43.53,36,0,15.18-13.06,25.06-29.41,25.06s-29.89-10.82-29.89-24.94"/>
        <polygon points="364.01 24.15 364.01 57.91 316.21 57.91 316.21 71.08 364.01 71.08 364.01 105.33 377.89 105.33 377.89 24.15 364.01 24.15"/>
        <polygon points="397.19 24.14 450.02 24.14 450.02 37.32 411.19 37.32 411.19 57.91 446.13 57.91 446.13 71.09 411.19 71.09 411.19 92.15 450.61 92.15 450.61 105.32 397.19 105.32 397.19 24.14"/>
        <path d="M466.05,24.14h35.53c15.06,0,26.59,11.06,26.59,25.77,0,12.12-8,21.53-19.3,24.36l21.77,31.06h-17.53l-20.47-30.24h-12.59v30.24h-14V24.14ZM480.05,37.32v25.53h21.18c7.18,0,12.59-5.53,12.59-12.82s-5.41-12.71-12.59-12.71h-21.18Z"/>
        <rect x="543.01" y="24.14" width="14" height="81.18"/>
        <path d="M576.01,24.14h31.53c23.65,0,41.3,17.41,41.3,40.59s-17.65,40.59-41.3,40.59h-31.53V24.14ZM590.01,37.32v54.83h17.3c15.53,0,27.18-11.76,27.18-27.41s-11.65-27.42-27.18-27.42h-17.3Z"/>
        <polygon points="699.68 24.15 683.09 24.15 651.09 105.33 666.15 105.33 691.21 39.43 716.28 105.33 731.69 105.33 699.68 24.15"/>
        <polygon points="741.82 24.14 756.06 24.14 796.65 81.56 796.65 24.14 810.65 24.14 810.65 105.32 796.42 105.32 755.82 47.91 755.82 105.32 741.82 105.32 741.82 24.14"/>
        <path d="M891.95,74.26c11.28-2.83,19.28-12.23,19.28-24.35,0-14.72-11.52-25.77-26.58-25.77h-35.53v13.17h35.18c7.17,0,12.59,5.42,12.59,12.72s-5.42,12.82-12.59,12.82h-35.18v12.23h26.59l20.48,30.25h17.53l-21.77-31.07Z"/>
        <rect x="926.09" y="24.14" width="14" height="81.18"/>
        <path d="M954.56,64.73c0-23.88,18.47-42.01,42.71-42.01,20.35,0,36.59,12.82,40.59,30.83h-14.83c-3.65-10.35-13.65-17.3-25.77-17.3-16,0-28.24,12.24-28.24,28.47s12.24,28.47,28.24,28.47c12.12,0,22.12-6.94,25.77-17.29h14.83c-4,18-20.24,30.83-40.59,30.83-24.24,0-42.71-18.12-42.71-42"/>
        <polygon points="1051.96 24.14 1065.96 24.14 1065.96 57.91 1105.73 57.91 1105.73 24.14 1119.61 24.14 1119.61 105.32 1105.73 105.32 1105.73 71.09 1065.96 71.09 1065.96 105.32 1051.96 105.32 1051.96 24.14"/>
        <polygon points="1138.9 24.14 1191.73 24.14 1191.73 37.32 1152.9 37.32 1152.9 57.91 1187.85 57.91 1187.85 71.09 1152.9 71.09 1152.9 92.15 1192.32 92.15 1192.32 105.32 1138.9 105.32 1138.9 24.14"/>
        <polygon points="1231.94 76.26 1200.05 24.14 1216.05 24.14 1239.12 62.14 1262.06 24.14 1277.71 24.14 1245.94 76.26 1245.94 105.32 1231.94 105.32 1231.94 76.26"/>
        <rect x="185.46" width="3.08" height="130.88"/>
      </g>
    </g>
  </g>
</svg>