<?xml version="1.0" encoding="UTF-8"?>
<svg id="Layer_2" data-name="Layer 2" xmlns="http://www.w3.org/2000/svg" viewBox="-40 -100 500 500">
  <defs>
    <style>
      .cls-1 {
        fill: #009696;
      }

      .cls-2 {
        fill: #fff;
      }
    </style>
  </defs>
  <rect class="cls-1" x="-40" y="-100" width="500" height="500" rx="16" ry="16"/>
  <g id="Layer_1-2" data-name="Layer 1">
    <path class="cls-2" d="M350.5,165.76c37.31-9.39,63.8-40.45,63.8-80.5,0-48.67-38.1-85.27-87.94-85.27H97.65C45.93,0,4.7,31.18,4.7,79.39c0,71.17,86.96,72.35,125.51,94.53,11.03,6.26,18.07,14.28,18.07,26.09,0,9-3.91,16.83-10.37,22.83-8.93,8.42-22.89,13.37-38.68,13.37-29.16,0-51.73-17.55-51.73-40.83H0c0,46.64,42.41,82.46,98.83,82.46,43.25,0,79.58-20.94,92.37-55,3.2-8.48,4.89-17.81,4.89-27.85,0-44.1-32.1-61.19-65.89-72.54-37.9-12.79-78.08-18.34-78.08-46.51,0-21.07,20.62-32.36,44.75-32.36h228.31c23.75,0,41.62,17.94,41.62,42.08s-17.87,42.34-41.62,42.34h-115.4c5.03,6.39,9.46,13.56,12.99,21.46,2.67,6,4.76,12.39,6.26,18.99h67.77l67.71,100.07h57.99l-72.02-102.75Z"/>
  </g>
</svg>